<?xml version="1.0" encoding="utf-8"?>
<!-- Generator: Adobe Illustrator 23.0.2, SVG Export Plug-In . SVG Version: 6.00 Build 0)  -->
<svg version="1.1" id="svg" xmlns="http://www.w3.org/2000/svg" xmlns:xlink="http://www.w3.org/1999/xlink" x="0px" y="0px"
	 viewBox="0 0 400 571.4" style="enable-background:new 0 0 400 571.4;" xml:space="preserve">
<style type="text/css">
	.st0{fill-rule:evenodd;clip-rule:evenodd;fill:#157A49;stroke:#FFFFFF;stroke-miterlimit:10;}
</style>
<g id="svgg">
	<path id="path0" class="st0" d="M189.6,137.8c-2.6,0.5-3.5,1.1-5.2,3.3c-0.5,0.7-1.5,2-2.2,2.9c-1.6,2.1-2.2,2.8-4.3,5.9
		c-2.5,3.6-5.5,7.9-9.7,13.7c-0.9,1.2-3.5,4.7-5.8,7.9c-8.2,11.2-11.5,15.6-16.3,21.5c-15.6,19.5-29.3,33.5-48.6,49.6
		c-14.7,12.3-30.1,22.8-45,30.6c-7.2,3.8-8,4.6-6.5,6.2c2.4,2.6,9.5,2.7,16.5,0.3c10-3.4,33.3-18.6,50.8-33.2
		c20-16.7,34.1-31,49.7-50.5c5.3-6.6,8.1-10.3,16.7-22.1c2-2.8,4.9-6.7,6.4-8.7c4.9-6.7,9.3-12.9,10.7-15.2c0.5-0.8,0.7-0.9,0.7-0.4
		c0,2.4,2.2,9.5,4.9,15.8c4.9,11.4,7.6,16.2,14.6,26.1c11.3,15.9,22.5,26.9,45.6,45.3c11.9,9.5,20.7,15.7,33.6,23.7
		c2.1,1.3,5.8,3.6,8.1,5.1c6,3.8,7.1,4.5,9.5,5.9c11.5,6.9,20,10.5,26.8,11.5c6.5,0.9,12.3-1.5,9.7-4c-0.5-0.5-6.4-3.8-11.1-6.3
		c-6.7-3.5-10.3-5.6-17-9.8c-1.5-1-4.8-3-7.1-4.5c-8.2-5.1-9.7-6.1-12.9-8.2c-12.2-8-26.9-19.4-40.2-31
		c-14.3-12.5-25.4-25.5-34.7-40.9c-0.6-0.9-1.6-2.5-2.3-3.6c-4.4-6.9-10.5-17.4-14.6-25.4c-2.9-5.6-3.5-6.3-5.8-6.8
		c-0.9-0.2-3.8-0.2-4.4,0c-0.2,0.1-0.2,0-0.3-0.8c-0.1-2-1.3-3.1-4.2-3.8C194.3,137.6,191,137.5,189.6,137.8 M181.9,269.5
		c-22.2,0.4-36.3,1.3-55.8,3.3c-8.9,0.9-21.6,2.9-34.5,5.2c-5.1,0.9-14.4,3.2-19.9,4.7c-4.7,1.3-9.6,4.1-10.2,5.6
		c-1,2.8,3.5,8.4,7.8,9.8c2.4,0.7,8.2,0,15.3-1.9c9.6-2.6,15.2-3.8,26.7-5.7c17.1-2.8,20.5-3.3,39.8-5c10.3-0.9,19.8-1.4,30-1.7
		l3.4-0.1l-0.2,0.4c-0.8,1.6-1,3.4-0.8,8.6c0.1,2.4,0.2,6.6,0.2,9.3c0.3,13.8,0.5,17.3,2.6,41.6c0.5,6.4,1,11.6,1,11.7
		c0,0.1-0.3,0.2-0.7,0.2c-14.9,1.6-29.2,3.7-44,6.5c-5.8,1.1-16.7,3.4-20.7,4.3c-0.9,0.2-0.8,0.3-0.9-1.6c-0.4-8.1-1.7-22.7-3-33.1
		c-1-7.7-3-20-3.5-21.7c-1.8-5.2-13.1-8.8-16.6-5.3c-1,1-1,1.2-0.2,5.2c1.8,9.7,3.2,20.4,4.4,32.9c0.9,9.3,1.5,18.9,1.7,25.4
		c0,1.1,0.1,2.2,0.1,2.4c0.1,0.4,0.1,0.4-0.7,0.6c-14.1,4.1-23.9,7.5-32.2,11.1c-3.9,1.7-4.2,2-4.2,3.4c0,3.2,6,6.3,12.3,6.3
		c2.9,0,2.6,0.1,7.9-2.2c3.9-1.7,7-2.9,14.1-5.3l3.3-1.1l0.1,1.2c0.1,1.4,0.2,5.6,0.2,12.1c0.2,14.2,0.3,16.8,1.1,21.4
		c0.7,4,1.4,6.2,2.6,7.4c3.1,3.4,10.2,4.6,12,2.1c2-2.8,2.5-16.8,1.5-45.7c-0.1-2-0.1-3.6-0.1-3.6c0.1-0.1,6.7-1.8,7.4-1.9l0.4-0.1
		l0.1,0.6c0,0.3,0.1,1.2,0.2,2c0.2,1.8,1.2,8.2,2,12.2c2.1,10.7,3.5,13.2,8.2,14.4c5.5,1.5,7-0.4,7.4-9.5c0.5-10.8-1-17.9-4.6-21.7
		c-0.4-0.4-0.8-0.8-0.7-0.9c0.1-0.1,11.7-2.5,12.1-2.5c0.2,0,0.2,0.1,0.2,0.7c0,3.1,2.5,16.9,3.7,20.6c1.5,4.4,3.7,6.2,7.8,6.2
		c2.6,0,2.6,0,3.4-6.6c0.7-5.8,0.9-8.1,0.9-13.5l0-3.9l-0.3-1.1c-0.5-1.8-1.2-3.1-2.2-4.2c-0.3-0.3-0.4-0.5-0.4-0.5
		c0.2-0.2,20.5-3.2,20.7-3c0.1,0.1,0.2,1.3,1.5,19.5c0.8,10.5,1.5,18.8,2.3,27.3c0.1,1.3,0.3,3.2,0.4,4.2c0.1,1,0.2,2.1,0.2,2.3
		c0,0.2,0.1,0.7,0.1,1.1c0,0.4,0.1,0.9,0.1,1.1c0.4,3,2.4,23.6,2.9,29.5c0.2,1.9,0.3,3.7,0.3,4.1c0.1,1,0.3,3.3,0.6,7.9
		c1.4,17.9,1.5,18.8,3,24.8c1.6,6.4,2.8,9.7,4.2,11.3c2.5,2.8,8.6,4.1,10.4,2.3c1.5-1.5,2.1-11.8,1.3-20.1c-0.3-2.7-0.6-6.7-0.8-9.5
		c0-0.4-0.1-1.1-0.1-1.4c0-0.3-0.1-1-0.1-1.5c0-0.5-0.1-1.1-0.1-1.5c0-0.3-0.1-1-0.1-1.5c0-0.5-0.1-1.1-0.1-1.5c0-0.3-0.1-1-0.1-1.4
		c-0.1-1.5-0.9-10.5-0.9-11.1c0-0.3-0.1-1.4-0.2-2.5c-0.3-3.6-0.7-8-1.2-12.5c-0.5-5.1-1.8-17.7-1.9-18.7c0-0.4-0.1-1.2-0.2-1.8
		c-0.4-3.6-1.4-15.9-1.8-21.3c-0.1-1.7-0.3-3.3-0.3-3.7c0-0.4-0.1-1.8-0.2-3.1c-0.1-1.4-0.2-2.7-0.2-3.1c0-0.3-0.1-1.4-0.2-2.3
		c-0.1-0.9-0.1-2-0.2-2.3c-0.1-0.8-0.3-3.4-0.6-8.3c-0.1-1.7-0.3-4.1-0.4-5.3c-0.1-1.2-0.2-2.3-0.2-2.5v-0.4l1.6-0.1
		c1.4-0.1,3.8-0.3,8.9-0.5l1.2-0.1l-0.1,0.4c-0.2,0.9-0.1,4.4,0.2,5.9c2.3,13,4.7,20.8,7,22.6c2.9,2.2,8.3,2.8,9.1,1.1
		c0.1-0.2,0.3-1,0.4-1.8c0.1-0.8,0.3-2.2,0.4-3.1c0.3-1.9,0.4-10.1,0.2-12.7c-0.1-0.8-0.1-1.9-0.2-2.5c-0.3-4.8-1.5-7.6-4-9.3
		c-1.1-0.8-1.2-0.7,0.7-0.7c0.9,0,2.8,0.1,4.3,0.1c3,0.1,5.1,0.2,9.5,0.5l2.9,0.2l-0.1,0.4c-0.1,0.6-0.1,2.5,0.2,4.2
		c1.8,15.4,2.8,20.3,4.3,21.8c2.2,2.1,7.9,3.1,8.8,1.4c0.3-0.5,1.3-6.4,1.7-9.3c1.2-10.3,0.8-14.2-1.5-16.7l-0.5-0.5l0.3,0.1
		c0.2,0,1.1,0.2,2.1,0.3c8.2,1.1,15.7,2.7,29.5,6.2c3.2,0.8,7.3,1.8,9.1,2.2c1.8,0.4,3.4,0.9,3.6,1c1.6,0.8,6.3,1.6,8,1.4
		c4.1-0.6,3.3-3.5-1.7-6.2c-7.6-4.1-30.2-10.1-49.5-13.1c-9.4-1.4-18-2.3-30.4-2.9c-2.9-0.2-17.6-0.2-21-0.1
		c-1.4,0.1-3.4,0.1-4.3,0.1l-1.7,0l-0.1-1.6c-0.6-6.6-1.7-20.7-1.8-21.9c0-0.5-0.1-1.1-0.1-1.4c0-0.3-0.1-1.7-0.2-3.1
		c-0.4-5.8-0.7-12.1-0.8-18.5c-0.3-14.7-0.3-14.6-1.1-17.1c-1-3-2.4-4.8-4.7-6.2l-1-0.6l7,0c8.7,0,13.9,0.1,29.4,0.7
		c19.6,0.7,24.4,1,47.8,3.1c3.8,0.3,7.9,0.7,9.1,0.7c2.3,0.1,6.5,0.5,9.4,0.9c4.5,0.6,17.2,3.4,18.1,4c0.7,0.5,2.5,1.3,3.3,1.4
		c5.8,1.2,3.3-6.9-3.8-12c-3.2-2.3-3.9-2.7-7.1-3.5c-6.4-1.7-10.2-2.5-15.2-3.2c-5-0.7-5.4-0.7-7.9-1c-1.3-0.1-3.6-0.4-5-0.6
		c-4.6-0.6-24.6-2.4-33.4-3c-8.9-0.6-27.9-1.4-39.1-1.7c-1.6,0-3.4-0.1-4.1-0.1C200.2,269.4,186.7,269.4,181.9,269.5"/>
</g>
</svg>
